<?xml version="1.0" encoding="UTF-8"?>
<svg id="Capa_1" data-name="Capa 1" xmlns="http://www.w3.org/2000/svg" viewBox="0 0 226.29 215.84">
  <defs>
    <style>
      .cls-1 {
        fill: #b2251d;
      }
    </style>
  </defs>
  <path class="cls-1" d="M97.75,49.16c2.85,1.3,5.9.73,6.81-1.27.91-2-.67-4.67-3.52-5.97-2.85-1.3-5.9-.73-6.81,1.27-.91,2,.67,4.67,3.52,5.97Z"/>
  <path class="cls-1" d="M98.54,54.58c-.91,2,.67,4.67,3.52,5.97,2.85,1.3,5.9.73,6.81-1.27.91-2-.67-4.67-3.52-5.97-2.85-1.3-5.9-.73-6.81,1.27Z"/>
  <path class="cls-1" d="M171.9,93.1c-1.3,2.85-.73,5.9,1.27,6.81,2,.91,4.67-.67,5.97-3.52,1.3-2.85.73-5.9-1.27-6.81-2-.91-4.67.67-5.97,3.52Z"/>
  <path class="cls-1" d="M160.51,97.42c-1.3,2.85-.73,5.9,1.27,6.81,2,.91,4.67-.67,5.97-3.52,1.3-2.85.73-5.9-1.27-6.81-2-.91-4.67.67-5.97,3.52Z"/>
  <path class="cls-1" d="M192.82,133.36c-1.61-1.58-8.06-7.11-20.97-18.16-.4-.34-1.35-1.12-2.63-1.21-1.72-.13-3.29,1.19-3.53,1.43l-.31.31s-.2.22-.43.45c-.27.29-5.42,5.63-12.46,12.92-.16.17-1.16,1.22-1.02,2.8.11,1.26.87,2.05,1.07,2.24,3.25,3.26,6.48,6.52,9.71,9.79.21.17.94.67,1.99.67,1,0,1.71-.49,1.93-.65,3.08-3.22,6.17-6.44,9.25-9.66.22-.27.31-.6.19-.84-.17-.34-.79-.52-1.36-.15-4.8,3.71-8.33,6.38-8.98,6.85-.14.1-.47.32-.9.33-.43,0-.75-.21-.91-.31-1.05-.73-3.19-2.88-3.86-3.52-.05-.05-3.5-3.33-4.13-4.02-.08-.08-.24-.27-.24-.55,0-.19.08-.35.12-.4,3.96-3.91,7.91-7.81,11.86-11.72.07-.07.5-.52,1.16-.5.51,0,.86.3.96.39,10.4,9.9,18,17.19,18.39,17.57.06.06.2.21.24.48.07.4-.19.69-.22.73-7.35,6.78-14.71,13.58-22.05,20.37-.15.12-.67.5-1.43.48-.83-.02-1.36-.52-1.48-.62-6.51-6.55-13.03-13.1-19.52-19.65l-.1-.1-.04-.04c3.89-3.74,7.08-8.21,9.36-13.17,2.28-4.97,3.65-10.43,3.88-16.2.07,0,.14,0,.2,0,12.27-.42,24.54-.81,36.82-1.23.24-.54.57-1.26.9-2.12,0,0,.26-.68.45-1.25.51-1.49,1.48-7.29-1.36-9.35-.25-.18-1.13-.75-2.22-.65-1.7.15-2.7,1.79-2.82,1.99-1.08,1.81-.58,4.14-.03,6.74.05.22.09.41.12.53-10.68.88-21.36,1.74-32.04,2.62-.18-8.07-2.54-15.59-6.56-21.99l.07.08c7.33-7.49,14.66-15,21.99-22.49.35-.34,2.53-2.55,2.36-5.95-.15-2.79-1.77-4.56-2.21-5.01-8.72-8.13-17.45-16.25-26.16-24.37-.28-.27-1.42-1.33-3.22-1.41-1.86-.1-3.65,1.36-3.74,1.45-.31.24-.51.45-.57.51-1.59,1.61-7.11,8.07-18.17,20.98-.34.4-1.12,1.33-1.21,2.61-.13,1.72,1.19,3.3,1.43,3.55,0,0,.13.13.32.29,0,0,.22.22.45.44.28.28,5.62,5.42,12.92,12.46.16.15,1.21,1.15,2.79,1.02,1.26-.1,2.05-.88,2.25-1.08,3.26-3.23,6.51-6.46,9.78-9.71.17-.21.67-.93.67-1.98s-.49-1.71-.65-1.93c-3.22-3.08-6.44-6.16-9.66-9.25-.27-.21-.6-.32-.84-.2-.34.17-.52.8-.15,1.37,3.71,4.8,6.38,8.32,6.85,8.98.1.14.32.46.33.9,0,.43-.21.76-.31.9-.72,1.06-2.88,3.19-3.51,3.86-.06.05-3.34,3.52-4.03,4.13-.08.08-.27.26-.55.26-.19,0-.34-.1-.4-.14-3.91-3.95-7.81-7.9-11.72-11.85-.07-.07-.52-.49-.49-1.15,0-.53.29-.87.38-.96,9.91-10.41,17.19-18,17.57-18.39.06-.07.22-.22.48-.26.4-.06.69.2.73.23,6.79,7.36,13.58,14.7,20.37,22.06.12.14.5.65.48,1.41,0,.84-.52,1.37-.62,1.49l-19.39,19.27-.36.36-.12.13c-7.56-7.71-18.01-12.58-29.6-12.91v-.06c0-.22-.02-.45-.03-.67-.41-12.1-.81-24.2-1.21-36.3-.54-.24-1.26-.57-2.12-.91,0,0-.68-.26-1.25-.45-1.49-.5-7.3-1.48-9.35,1.37-.19.25-.75,1.12-.65,2.22.15,1.7,1.79,2.7,1.98,2.82,1.82,1.07,4.15.58,6.75.03.22-.05.4-.09.53-.12.87,10.57,1.73,21.15,2.59,31.72,0,.12.02.22.02.34-2.73.1-6.27.46-10.24,1.58-4.45,1.26-7.97,3.02-10.48,4.52l-.04-.04-.15-.14c-7.46-7.29-14.9-14.58-22.35-21.86-.34-.35-2.56-2.52-5.95-2.35-2.78.15-4.55,1.77-5,2.22-8.12,8.71-16.25,17.43-24.37,26.14-.28.29-1.33,1.43-1.42,3.22-.09,1.87,1.37,3.65,1.45,3.76.24.29.45.51.52.56,1.61,1.59,8.06,7.11,20.97,18.17.4.34,1.34,1.12,2.62,1.21,1.73.12,3.29-1.19,3.54-1.43,0-.02.13-.14.31-.32,0,0,.2-.21.43-.45.27-.28,5.42-5.63,12.45-12.92.17-.17,1.16-1.22,1.03-2.79-.11-1.27-.87-2.06-1.08-2.25-3.24-3.26-6.47-6.52-9.7-9.79-.22-.17-.94-.66-1.99-.66s-1.71.48-1.93.64c-3.08,3.22-6.17,6.44-9.25,9.67-.22.26-.31.6-.2.84.17.33.79.51,1.35.14,4.8-3.7,8.33-6.37,8.99-6.85.13-.09.46-.32.9-.32.43,0,.75.2.91.3,1.05.73,3.19,2.88,3.86,3.53.05.04,3.5,3.33,4.12,4.01.08.08.25.28.25.55,0,.2-.08.35-.13.41-3.95,3.9-7.9,7.81-11.86,11.71-.06.08-.49.52-1.15.51-.52-.02-.86-.31-.96-.39-10.4-9.9-18-17.19-18.39-17.57-.06-.06-.2-.22-.25-.49-.06-.4.19-.68.23-.72,7.35-6.79,14.7-13.59,22.05-20.38.15-.11.66-.5,1.43-.48.83.03,1.36.52,1.48.63,6.45,6.49,12.89,12.97,19.34,19.45l.28.28.05.05c-7.87,7.48-12.9,17.89-13.39,29.48h-.06c-12.33.42-24.65.82-36.97,1.24-.25.53-.58,1.25-.91,2.12,0,0-.26.68-.45,1.25-.5,1.49-1.48,7.29,1.37,9.35.25.18,1.12.75,2.22.65,1.69-.15,2.7-1.79,2.81-1.99,1.07-1.82.58-4.14.04-6.74-.05-.22-.1-.42-.12-.54,10.67-.87,21.34-1.73,32.03-2.61.16,7.88,2.41,15.22,6.22,21.52-7.32,7.49-14.64,14.99-21.96,22.48-.35.35-2.53,2.55-2.35,5.95.14,2.79,1.76,4.56,2.2,5.01,8.72,8.13,17.45,16.25,26.16,24.37.29.28,1.42,1.33,3.21,1.41,1.87.1,3.65-1.36,3.75-1.45.31-.24.51-.45.58-.51,1.58-1.61,7.11-8.07,18.16-20.98.34-.4,1.12-1.33,1.21-2.61.13-1.72-1.19-3.3-1.43-3.55,0,0-.13-.12-.32-.29,0,0-.22-.21-.45-.44-.28-.27-5.62-5.42-12.92-12.45-.16-.16-1.21-1.16-2.79-1.03-1.26.11-2.05.88-2.25,1.08-3.26,3.24-6.51,6.47-9.78,9.71-.17.21-.67.93-.67,1.98,0,1,.49,1.71.65,1.93,3.22,3.09,6.43,6.17,9.66,9.25.27.21.6.32.84.2.34-.17.52-.8.14-1.37-3.7-4.8-6.37-8.32-6.84-8.98-.1-.14-.32-.46-.33-.9,0-.43.21-.76.31-.9.73-1.06,2.88-3.19,3.51-3.86.05-.05,3.34-3.51,4.03-4.13.08-.08.28-.26.55-.26.19,0,.35.1.4.14,3.91,3.95,7.82,7.9,11.72,11.86.07.06.52.48.49,1.14,0,.53-.29.87-.38.96-9.91,10.41-17.19,18.01-17.58,18.4-.06.06-.21.21-.47.25-.4.06-.69-.19-.73-.23-6.79-7.35-13.58-14.7-20.37-22.06-.11-.14-.5-.65-.48-1.41,0-.84.51-1.37.62-1.49,6.56-6.52,13.12-13.04,19.69-19.56l.08-.09c7.55,7.87,18.05,12.87,29.72,13.26.41,12.33.82,24.67,1.24,37,.53.25,1.25.57,2.12.91,0,0,.68.25,1.25.45,1.49.5,7.29,1.48,9.35-1.37.18-.25.75-1.12.65-2.22-.15-1.7-1.79-2.7-1.99-2.82-1.82-1.07-4.14-.58-6.74-.03-.23.05-.42.09-.54.12-.87-10.67-1.73-21.34-2.61-32.03,7.73-.22,14.96-2.47,21.16-6.22,7.49,7.32,14.99,14.64,22.48,21.97.34.35,2.55,2.53,5.96,2.36,2.78-.16,4.55-1.77,5-2.22,8.12-8.71,16.25-17.44,24.37-26.15.28-.28,1.33-1.43,1.41-3.22.1-1.86-1.36-3.65-1.45-3.75-.23-.3-.45-.51-.51-.57ZM127.76,106.22h.14v-4.47s.05-.12.07-.2c.04-.06.36-.81.99-1.08v-.82h-.28v-.49h.52v-2.01h.41v2.01h.62v.49h-.33v.82c.53.22.87.78,1,1.14.02.06.04.11.05.15v4.47h.25v.11h-3.44v-.11ZM127.54,106.66h3.9v.39h-3.9v-.39ZM122.73,113.06c.07-.18.13-.37.22-.58.12-.27,1.51-3.45,4.18-4.77.2-.11.41-.2.63-.28v-.05h3.44v.04c.23.08.46.18.68.29,2.19,1.06,3.67,3.41,4.26,5.04.05.13.09.24.12.35.04.12.07.22.1.32h0s-13.64,0-13.64,0v-.37ZM122.73,113.77h13.82v.95h-13.82v-.95ZM122.73,115.04h13.82c-.04.11-.09.21-.13.31v.02c-.02,1.88-.04,3.75-.05,5.64-5.31-1.42-10.01-1.9-14.06-1.85-1.45.02-2.8.1-4.08.22-4.82.48-10.02,1.75-16.83,2.54-2.56.28-5.34.52-8.43.59-1.48,0-2.99.02-4.49.03h0c-.41,0-.82,0-1.24-.03-.04-2.14-.08-4.3-.14-6.44v-.33h14.01v5.9h.3v-14.27h20.92v10.98h.42v-3.32ZM109.58,86.18c0-.09.05-.19.11-.32.04-.09.54-1.21,1.47-1.62v-1.71h-.41v-.74h.81v-3h.6v3h.92v.74h-.5v1.71c.77.33,1.3,1.16,1.51,1.72.02.09.05.17.06.22v6.8h-4.57v-6.8ZM109.23,93.31h5.42v1.31h-5.42v-1.31ZM101.62,103.8c.11-.35.26-.86.5-1.42.19-.42,2.34-5.32,6.45-7.23.15-.09.29-.14.44-.2h5.96c.13.04.22.1.33.16,3.44,1.53,5.78,5.18,6.69,7.7.15.4.25.74.32,1v1.45h-20.69v-1.45ZM100.85,105.59h21.82v1.46h-21.82v-1.46ZM92.64,101.75s.04-.12.08-.2c.02-.06.35-.81.97-1.08v-1.08h-.28v-.49h.52v-2.01h.41v2.01h.62v.49h-.32v1.08c.52.22.86.78.99,1.14.02.06.04.11.05.15v4.3h-3.04v-4.3ZM92.08,106.38h3.92v.87h-3.92v-.87ZM87.27,113.99c.03-.19.05-.37.08-.57.07-.24.18-.58.33-.95.12-.26,1.39-3.18,3.82-4.57.2-.12.43-.23.65-.33h4.17c.11.06.22.1.33.15,1.03.52,1.9,1.31,2.6,2.17.76.96,1.32,2.01,1.64,2.86.09.27.16.5.19.67v.9h-13.87c0-.11.02-.21.05-.33ZM86.94,114.64h14.15v.78h-14.15v-.78ZM118.79,121.48c-9.02.84-16.73,3.84-29.65,2.49-3.26-.33-5.9-.86-7.59-1.23,1.55.13,4.1.3,7.26.35,18.91.29,26.38-4.42,39.35-3.03,3.85.42,9.65,1.53,16.58,4.92-11.18-3.87-19.97-4.05-25.94-3.5Z"/>
  <path class="cls-1" d="M128.3,166.67c-2.85-1.3-5.9-.73-6.81,1.27-.91,2,.67,4.67,3.52,5.97,2.85,1.3,5.9.73,6.81-1.27.91-2-.67-4.67-3.52-5.97Z"/>
  <path class="cls-1" d="M117.17,156.56c-.91,2,.67,4.67,3.52,5.97,2.85,1.3,5.9.73,6.81-1.27.91-2-.67-4.67-3.52-5.97-2.85-1.3-5.9-.73-6.81,1.27Z"/>
  <path class="cls-1" d="M54.39,122.71c1.3-2.85.73-5.9-1.27-6.81-2-.91-4.67.67-5.97,3.52-1.3,2.85-.73,5.9,1.27,6.81,2,.91,4.67-.67,5.97-3.52Z"/>
  <path class="cls-1" d="M65.06,118.38c1.3-2.85.73-5.9-1.27-6.81-2-.91-4.67.67-5.97,3.52-1.3,2.85-.73,5.9,1.27,6.81,2,.91,4.67-.67,5.97-3.52Z"/>
</svg>