<?xml version="1.0" encoding="UTF-8"?>
<svg id="Capa_1" data-name="Capa 1" xmlns="http://www.w3.org/2000/svg" viewBox="0 0 378.28 230.86">
  <defs>
    <style>
      .cls-1 {
        fill: #f5f3ed;
      }
    </style>
  </defs>
  <path class="cls-1" d="M89.91,69.65c1.91.37,3.32,2.11,3.41,4.08.1,2.25-1.53,4.35-3.76,4.59h-10.58c-.53.04-3.7.37-5.86,3.4-1.73,2.43-1.73,5.08-1.7,5.84v10.5c.82,0,15.02,0,15.06,0,0,0,.04,0,.07,0,.07,0,.12,0,.17,0,.69,0,1.31.05,1.89.45.35.24.67.51.96.82.8.84,1.33,1.92,1.33,3.1,0,.07,0,.14,0,.2-.06,1.13-.6,2.16-1.4,2.94-.31.3-.66.59-1.04.79-.42.22-.89.3-1.36.32-.41.02-.81,0-1.22,0h-14.46v28.51c-.65,2.09-2.43,3.5-4.42,3.53-2.07.03-3.94-1.46-4.57-3.66v-28.38c-2.03-.15-3.62-1.86-3.79-3.9-.19-2.3,1.48-4.51,3.79-4.71v-10.66c.01-1.52.22-6.8,3.87-11.48,4.55-5.85,10.92-6.22,11.98-6.26h11.63Z"/>
  <path class="cls-1" d="M121.3,138.69c.42-.04,1.8-.18,2.87-1.4,1.01-1.15,1.08-2.6,1.08-2.81,0-.14.03-1.91-1.2-3.22-.94-1-2.1-1.26-2.75-1.28,0,0,0,0-.62,0-.54,0-1.73,0-1.78,0-.6,0-1.5,0-2,0-.03,0-.12,0-.16,0-.31,0-.63,0-4.08,0-1.14,0-1.14,0-1.14,0-1.5-.03-4.06-.78-6-3.08-1.93-2.29-2.28-4.98-2.29-5.73,0-.02,0-.04,0-1.12v-23.75c0-2.94-.04-9.27-.17-22.79.02-.41.01-1.55-.76-2.56-1.13-1.48-2.99-1.49-3.49-1.5-.47,0-2.37-.01-3.56,1.5-.78.99-.84,2.11-.84,2.52-.12,5.98-.15,10.8-.16,14.22,0,3.33,0,8.4,0,9.36,0,4.86,0,6.19,0,9.91,0,1.28-.01,5.84,0,12.07,0,.14,0,.42,0,.81,0,1.73,0,3.01,0,3.08,0,1.01.59,5.18,3.59,9.05,4.85,6.25,12.17,6.76,12.79,6.76.02,0,.59,0,1.37,0,.83,0,.8-.01,1.31-.01,1.28,0,1.76,0,2.45,0,1.02,0,1.02,0,1.04,0,1.3.01,2.6,0,3.89.01.33,0,.44,0,.63-.01Z"/>
  <path class="cls-1" d="M126.4,73.72c.28-2.53,2.39-4.45,4.83-4.41,2.39.03,4.42,1.93,4.7,4.41v60.98c-.33,2.42-2.29,4.24-4.56,4.34-2.44.1-4.64-1.81-4.97-4.41v-60.91Z"/>
  <path class="cls-1" d="M139.23,133.91c-.16,2.46,1.84,4.03,2.49,4.32.69.31,1.18.32,1.18.32.02,0,.04,0,.61,0,.14,0,.29,0,.44,0,.15,0,1.29,0,1.51,0h4.67c5.75,0,5.4-.02,6.03,0,.33,0,.65.02,1.13,0,1.61-.05,2.9-.32,3.73-.53,1.62-.77,5.51-2.93,8.16-7.8.76-1.39,2.45-4.59,2.45-9.13,0-5.05-2.09-8.61-2.91-9.88-.61-.69-1.57-1.72-2.82-2.89-3.08-2.89-5.46-4.29-8.79-6.54-1.82-1.23-4.46-3.08-7.62-5.52-.83-.87-3.67-4.09-3.63-8.71,0-.63.03-1.98.61-3.46,1.78-4.53,6.85-5.5,7.51-5.61h9.32c.41,0,1.03,0,1.81,0,.47,0,.49,0,.52,0,1.06-.03,3.01-1.77,3.14-4.03.15-2.53-2.03-4.61-3.14-4.64-.03,0-.05,0-.75,0-.78,0-1.33,0-1.58,0h-8.85q-2.02,0-2.02,0c-1.06.06-6.42.39-10.73,5.04-2.56,2.76-3.67,5.9-4.17,7.76-.24,1.15-.51,2.86-.49,4.95.07,5.31,2.03,9.13,2.84,10.66.68,1.3,1.6,3,3.24,4.59.81.78,1.69,1.51,2.35,2.04,1.07.86,1.93,1.45,2.72,1.99,2.59,1.76,4.64,3.08,4.64,3.08,1.57,1,3.81,2.5,6.58,4.55,1.45,1.08,3.19,3.52,3.24,6.73,0,0,.06,3.96-3.22,6.97-.75.69-1.75,1.28-2.48,1.48-.48.13-1.26.21-1.43.21-.02,0-.16,0-.34,0-.04,0-.06,0-.11,0-.14,0-.24,0-.26,0-.16,0-.38,0-.71,0,0,0-.03,0-.91,0-1.04,0-1.85,0-2.19-.01-2.21-.02-4.98,0-5.22,0-.61,0-1.03.02-1.72.01-.11,0-.25,0-.43,0,0,0-.72.01-1.26.09-.7.09-2.97,1.49-3.13,3.99Z"/>
  <path class="cls-1" d="M209.05,90.27c-2.61-2.89-6.19-2.87-6.73-2.85h-20.34c-.77.07-3.88.42-6.35,3.06-2.91,3.12-2.65,6.98-2.6,7.6v31.64c.06.72.38,3.72,2.93,6.14,2.43,2.3,5.27,2.54,6.02,2.58,6.78.04,13.56.09,20.34.13.55.02,3.9.05,6.5-2.63,2.39-2.47,2.45-5.48,2.44-6.09v-33.81c0-.71-.12-3.43-2.22-5.76ZM202.32,99.56c0,8.97,0,17.94,0,26.91,0,.22-.08,1.45-1.03,2.38-.95.93-2.07.87-2.26.86h-13.72c-.21,0-1.51.03-2.47-1.1-.72-.84-.83-1.82-.85-2.13v-26.9c.01-.27.09-1.5,1.02-2.49.96-1.04,2.13-1.06,2.37-1.06h13.68c.2-.01,1.42-.04,2.38,1.03.9,1.02.9,2.28.89,2.51Z"/>
  <g>
    <g>
      <path class="cls-1" d="M283.98,58.77c2.24,1.02,4.64.57,5.36-1,.71-1.57-.53-3.67-2.77-4.69-2.24-1.02-4.64-.57-5.36,1s.53,3.67,2.77,4.69Z"/>
      <path class="cls-1" d="M284.6,63.03c-.71,1.57.53,3.67,2.77,4.69,2.24,1.02,4.64.57,5.36-1,.71-1.57-.53-3.67-2.77-4.69-2.24-1.02-4.64-.57-5.36,1Z"/>
      <path class="cls-1" d="M342.28,93.32c-1.02,2.24-.57,4.64,1,5.36,1.57.71,3.67-.53,4.69-2.77,1.02-2.24.57-4.64-1-5.36-1.57-.71-3.67.53-4.69,2.77Z"/>
      <path class="cls-1" d="M333.32,96.71c-1.02,2.24-.57,4.64,1,5.36,1.57.71,3.67-.53,4.69-2.77,1.02-2.24.57-4.64-1-5.36-1.57-.71-3.67.53-4.69,2.77Z"/>
      <path class="cls-1" d="M358.73,124.97c-1.26-1.24-6.34-5.59-16.49-14.28-.31-.27-1.06-.88-2.07-.95-1.35-.1-2.59.93-2.77,1.13l-.25.25s-.16.18-.34.35c-.21.23-4.26,4.43-9.79,10.16-.12.13-.91.96-.8,2.2.08.99.68,1.61.84,1.76,2.55,2.57,5.1,5.13,7.63,7.69.17.13.74.53,1.56.53.79,0,1.34-.38,1.52-.51,2.42-2.53,4.85-5.07,7.27-7.59.18-.21.25-.48.15-.66-.13-.27-.62-.41-1.07-.11-3.78,2.92-6.55,5.02-7.06,5.39-.11.08-.37.25-.71.26-.34,0-.59-.17-.71-.25-.83-.57-2.51-2.26-3.03-2.77-.04-.04-2.75-2.62-3.25-3.16-.06-.06-.19-.21-.19-.43,0-.15.06-.28.09-.31,3.11-3.07,6.22-6.14,9.33-9.21.05-.05.39-.41.91-.39.4,0,.67.24.75.31,8.18,7.79,14.15,13.52,14.46,13.82.05.05.16.17.19.38.05.31-.15.54-.18.57-5.78,5.33-11.56,10.67-17.33,16.02-.11.09-.53.39-1.13.38-.65-.02-1.07-.41-1.16-.49-5.12-5.15-10.25-10.3-15.35-15.45l-.08-.08-.03-.03c3.06-2.94,5.56-6.45,7.36-10.35,1.79-3.91,2.87-8.2,3.05-12.74.05,0,.11,0,.16,0,9.65-.33,19.3-.64,28.95-.97.19-.42.44-.99.71-1.67,0,0,.21-.54.35-.98.4-1.17,1.16-5.73-1.07-7.35-.2-.14-.89-.59-1.75-.51-1.33.11-2.12,1.41-2.21,1.56-.85,1.43-.46,3.26-.02,5.3.04.18.07.32.09.41-8.4.69-16.8,1.37-25.19,2.06-.14-6.34-2-12.26-5.16-17.29l.05.06c5.76-5.89,11.53-11.79,17.29-17.69.28-.27,1.99-2.01,1.85-4.67-.12-2.19-1.39-3.59-1.74-3.94-6.86-6.39-13.72-12.77-20.57-19.16-.22-.21-1.12-1.04-2.53-1.11-1.46-.08-2.87,1.07-2.94,1.14-.25.19-.4.35-.44.4-1.25,1.26-5.59,6.35-14.28,16.5-.27.31-.88,1.04-.95,2.05-.1,1.35.93,2.6,1.13,2.79,0,0,.1.1.25.23,0,0,.18.18.35.34.22.22,4.42,4.26,10.16,9.79.12.11.95.9,2.19.8.99-.08,1.61-.69,1.77-.85,2.56-2.54,5.12-5.08,7.69-7.63.13-.17.53-.73.53-1.56s-.38-1.34-.51-1.52c-2.53-2.42-5.07-4.84-7.59-7.27-.21-.17-.48-.25-.66-.16-.27.13-.41.63-.11,1.08,2.92,3.78,5.02,6.54,5.39,7.06.08.11.25.36.26.7,0,.34-.17.6-.25.7-.57.84-2.26,2.51-2.76,3.03-.05.04-2.63,2.77-3.16,3.25-.06.06-.21.21-.43.21-.15,0-.27-.08-.31-.11-3.07-3.1-6.14-6.21-9.21-9.32-.05-.05-.41-.38-.38-.9,0-.41.23-.68.3-.75,7.79-8.18,13.52-14.15,13.82-14.46.05-.05.18-.18.38-.21.31-.05.54.16.57.18,5.34,5.79,10.67,11.56,16.02,17.34.09.11.39.51.38,1.11,0,.66-.41,1.08-.49,1.17l-15.24,15.15-.28.28-.09.1c-5.95-6.06-14.16-9.89-23.27-10.15v-.05c0-.18-.02-.35-.02-.53-.32-9.52-.64-19.03-.95-28.54-.42-.19-.99-.44-1.67-.71,0,0-.54-.21-.98-.35-1.17-.39-5.74-1.16-7.35,1.08-.15.2-.59.88-.51,1.75.11,1.33,1.41,2.12,1.56,2.21,1.43.84,3.26.46,5.31.02.18-.04.31-.07.41-.09.68,8.31,1.36,16.63,2.04,24.94,0,.09.02.18.02.27-2.15.08-4.93.36-8.05,1.24-3.5.99-6.27,2.38-8.24,3.56l-.03-.03-.11-.11c-5.86-5.73-11.72-11.46-17.57-17.19-.27-.28-2.02-1.98-4.68-1.85-2.18.11-3.58,1.39-3.93,1.75-6.38,6.85-12.77,13.7-19.16,20.55-.22.23-1.04,1.13-1.12,2.53-.07,1.47,1.08,2.87,1.14,2.96.19.23.35.4.41.44,1.26,1.25,6.34,5.59,16.49,14.28.31.27,1.05.88,2.06.95,1.36.09,2.59-.93,2.78-1.13,0-.02.1-.11.25-.25,0,0,.16-.17.34-.35.21-.22,4.26-4.43,9.79-10.16.13-.13.91-.96.81-2.19-.08-1-.68-1.62-.85-1.77-2.54-2.56-5.09-5.13-7.62-7.69-.18-.13-.74-.52-1.56-.52s-1.34.38-1.52.51c-2.42,2.53-4.85,5.07-7.27,7.6-.18.21-.25.48-.15.66.13.26.62.4,1.07.11,3.78-2.91,6.55-5.01,7.07-5.39.1-.07.36-.25.7-.25.34,0,.59.16.71.24.83.57,2.51,2.26,3.03,2.77.04.03,2.75,2.62,3.24,3.15.06.06.2.22.2.43,0,.16-.06.28-.1.32-3.1,3.07-6.21,6.14-9.33,9.2-.05.06-.38.41-.9.4-.41-.02-.67-.25-.75-.31-8.18-7.79-14.15-13.52-14.46-13.82-.05-.05-.16-.18-.2-.38-.05-.31.15-.54.18-.57,5.78-5.34,11.56-10.68,17.33-16.02.11-.08.52-.39,1.13-.38.65.02,1.07.41,1.16.5,5.07,5.1,10.14,10.2,15.2,15.3l.22.22.04.04c-6.18,5.88-10.15,14.07-10.53,23.18h-.05c-9.69.33-19.38.64-29.07.97-.2.41-.45.98-.71,1.67,0,0-.21.54-.35.98-.39,1.17-1.16,5.73,1.08,7.35.2.14.88.59,1.75.51,1.33-.11,2.12-1.41,2.21-1.56.84-1.43.46-3.26.03-5.3-.04-.18-.08-.33-.09-.42,8.39-.68,16.78-1.36,25.18-2.05.12,6.19,1.89,11.97,4.89,16.92-5.75,5.89-11.51,11.79-17.26,17.67-.28.28-1.99,2.01-1.85,4.67.11,2.19,1.39,3.59,1.73,3.94,6.86,6.39,13.72,12.77,20.57,19.16.23.22,1.12,1.04,2.52,1.11,1.47.08,2.87-1.07,2.95-1.14.25-.19.4-.35.45-.4,1.24-1.26,5.59-6.34,14.28-16.5.27-.31.88-1.04.95-2.05.1-1.35-.94-2.6-1.13-2.79,0,0-.1-.09-.25-.23,0,0-.18-.17-.35-.34-.22-.21-4.42-4.26-10.16-9.79-.12-.12-.95-.91-2.19-.81-.99.08-1.61.69-1.77.85-2.56,2.54-5.12,5.09-7.69,7.63-.13.17-.53.73-.53,1.56,0,.79.38,1.34.51,1.52,2.53,2.43,5.06,4.85,7.59,7.27.21.17.48.25.66.16.27-.13.41-.63.11-1.08-2.91-3.78-5.01-6.54-5.38-7.06-.08-.11-.25-.36-.26-.71,0-.34.17-.6.25-.7.57-.84,2.26-2.51,2.76-3.03.04-.04,2.63-2.76,3.16-3.25.06-.06.22-.21.43-.21.15,0,.28.08.31.11,3.07,3.1,6.15,6.21,9.21,9.33.05.05.41.38.38.9,0,.41-.23.68-.3.75-7.79,8.18-13.52,14.16-13.82,14.47-.05.05-.17.17-.37.2-.31.05-.54-.15-.57-.18-5.34-5.78-10.67-11.56-16.02-17.34-.08-.11-.39-.51-.38-1.11,0-.66.4-1.08.49-1.17,5.16-5.13,10.31-10.25,15.48-15.38l.06-.07c5.94,6.18,14.19,10.12,23.36,10.43.32,9.69.64,19.4.97,29.09.41.2.98.44,1.67.71,0,0,.54.2.98.35,1.17.39,5.73,1.16,7.35-1.08.14-.2.59-.88.51-1.75-.12-1.33-1.41-2.12-1.56-2.21-1.43-.84-3.26-.45-5.3-.02-.18.04-.33.07-.42.09-.68-8.39-1.36-16.78-2.05-25.18,6.08-.18,11.76-1.94,16.64-4.89,5.89,5.75,11.79,11.51,17.68,17.27.27.28,2.01,1.99,4.68,1.85,2.18-.12,3.58-1.39,3.93-1.75,6.38-6.85,12.77-13.71,19.16-20.56.22-.22,1.04-1.13,1.11-2.53.08-1.46-1.07-2.87-1.14-2.95-.18-.24-.35-.4-.4-.44ZM307.58,103.64h.11v-3.52s.04-.09.05-.16c.03-.05.28-.64.78-.85v-.64h-.22v-.38h.41v-1.58h.32v1.58h.49v.38h-.26v.64c.41.18.68.61.79.9.02.05.03.08.04.11v3.52h.2v.08h-2.71v-.08ZM307.4,103.98h3.07v.31h-3.07v-.31ZM303.62,109.02c.05-.14.1-.29.18-.46.09-.21,1.19-2.71,3.29-3.75.15-.08.32-.16.5-.22v-.04h2.71v.03c.18.06.36.14.54.23,1.72.84,2.89,2.68,3.35,3.96.04.1.07.19.09.28.03.09.05.18.08.25h0s-10.72,0-10.72,0v-.29ZM303.62,109.57h10.87v.74h-10.87v-.74ZM303.62,110.57h10.87c-.03.08-.07.17-.1.25v.02c-.02,1.48-.03,2.95-.04,4.44-4.18-1.12-7.87-1.49-11.06-1.46-1.14.02-2.2.08-3.21.18-3.79.38-7.88,1.38-13.23,2-2.02.22-4.2.41-6.63.47-1.16,0-2.35.02-3.53.02h0c-.32,0-.64,0-.97-.02-.03-1.69-.06-3.38-.11-5.07v-.26h11.01v4.64h.24v-11.22h16.44v8.64h.33v-2.61ZM293.28,87.88c0-.07.04-.15.08-.25.03-.07.42-.95,1.16-1.27v-1.34h-.32v-.58h.64v-2.36h.48v2.36h.72v.58h-.39v1.34c.61.26,1.02.91,1.19,1.35.02.07.04.13.05.18v5.35h-3.59v-5.35ZM293,93.48h4.26v1.03h-4.26v-1.03ZM287.02,101.74c.08-.28.21-.67.39-1.12.15-.33,1.84-4.18,5.07-5.69.11-.07.23-.11.34-.16h4.69c.1.03.18.08.26.12,2.71,1.2,4.54,4.08,5.26,6.05.12.31.2.58.25.79v1.14h-16.27v-1.14ZM286.41,103.14h17.16v1.15h-17.16v-1.15ZM279.96,100.12s.03-.09.06-.16c.02-.05.28-.64.77-.85v-.85h-.22v-.38h.41v-1.58h.32v1.58h.49v.38h-.25v.85c.41.18.67.61.78.9.02.05.03.08.04.11v3.38h-2.39v-3.38ZM279.53,103.76h3.08v.68h-3.08v-.68ZM275.74,109.74c.02-.15.04-.29.06-.44.05-.19.14-.45.26-.74.09-.21,1.1-2.5,3-3.59.16-.09.34-.18.51-.26h3.28c.08.05.18.08.26.11.81.41,1.49,1.03,2.05,1.71.6.76,1.03,1.58,1.29,2.25.07.21.12.39.15.53v.7h-10.9c0-.08.02-.17.04-.26ZM275.48,110.26h11.13v.61h-11.13v-.61ZM300.52,115.64c-7.09.66-13.16,3.02-23.31,1.95-2.56-.26-4.64-.67-5.97-.97,1.22.1,3.23.24,5.71.28,14.87.23,20.74-3.48,30.94-2.38,3.03.33,7.59,1.2,13.03,3.87-8.79-3.04-15.7-3.19-20.4-2.75Z"/>
      <path class="cls-1" d="M308,151.17c-2.24-1.02-4.64-.57-5.36,1-.71,1.57.53,3.67,2.77,4.69,2.24,1.02,4.64.57,5.36-1,.71-1.57-.53-3.67-2.77-4.69Z"/>
      <path class="cls-1" d="M299.25,143.21c-.71,1.57.53,3.67,2.77,4.69,2.24,1.02,4.64.57,5.36-1,.71-1.57-.53-3.67-2.77-4.69-2.24-1.02-4.64-.57-5.36,1Z"/>
      <path class="cls-1" d="M249.89,116.6c1.02-2.24.57-4.64-1-5.36-1.57-.71-3.67.53-4.69,2.77-1.02,2.24-.57,4.64,1,5.36,1.57.71,3.67-.53,4.69-2.77Z"/>
      <path class="cls-1" d="M258.28,113.2c1.02-2.24.57-4.64-1-5.36-1.57-.71-3.67.53-4.69,2.77-1.02,2.24-.57,4.64,1,5.36,1.57.71,3.67-.53,4.69-2.77Z"/>
    </g>
    <path class="cls-1" d="M240.69,138.68c.42-.04,1.8-.18,2.87-1.4,1.01-1.15,1.08-2.6,1.08-2.81,0-.14.03-1.91-1.2-3.22-.94-1-2.1-1.26-2.75-1.28,0,0,0,0-.62,0-.54,0-1.73,0-1.78,0-.6,0-1.5,0-2,0-.03,0-.12,0-.16,0-.31,0-.63,0-4.08,0-1.14,0-1.14,0-1.14,0-1.5-.03-4.06-.78-6-3.08-1.93-2.29-2.28-4.98-2.29-5.73,0-.02,0-.04,0-1.12v-23.75c0-2.95-.02-9.38-.08-23.1-.03-.43-.16-1.38-.86-2.25-1.19-1.48-3.05-1.49-3.49-1.5-.41,0-2.32-.01-3.56,1.5-.69.84-.85,1.77-.89,2.2-.08,6-.1,10.92-.11,14.54,0,2.55,0,6.27,0,9.36,0,4.86,0,6.19,0,9.91,0,1.28-.01,5.84,0,12.07,0,.14,0,.42,0,.81,0,1.73,0,3.01,0,3.08,0,1.01.59,5.18,3.59,9.05,4.85,6.25,12.17,6.76,12.79,6.76.02,0,.59,0,1.37,0,.83,0,.8-.01,1.31-.01,1.28,0,1.76,0,2.45,0,1.02,0,1.02,0,1.04,0,1.3.01,2.6,0,3.89.01.33,0,.44,0,.63-.01Z"/>
    <g>
      <path class="cls-1" d="M69.94,167.01c-2.65,0-4.66-.74-6.05-2.21-1.39-1.47-2.08-3.56-2.08-6.27,0-1.35.21-2.55.63-3.61.42-1.06,1-1.95,1.74-2.68.74-.73,1.61-1.28,2.63-1.66,1.02-.38,2.12-.56,3.31-.56.69,0,1.32.05,1.88.15.56.1,1.06.22,1.48.35.42.13.78.27,1.06.41.28.14.49.25.61.33l-1.06,2.96c-.5-.27-1.08-.49-1.75-.68-.67-.19-1.42-.28-2.27-.28-.56,0-1.12.09-1.66.28-.54.19-1.02.49-1.43.9-.42.42-.75.95-1,1.61s-.38,1.46-.38,2.4c0,.75.08,1.45.25,2.1.16.65.43,1.21.8,1.68s.85.84,1.45,1.12c.59.27,1.32.41,2.16.41.53,0,1.01-.03,1.43-.09.42-.06.8-.14,1.13-.22.33-.09.62-.18.87-.29.25-.11.48-.21.68-.31l1.01,2.94c-.52.31-1.25.6-2.19.85-.94.25-2.03.38-3.27.38Z"/>
      <path class="cls-1" d="M89.42,166.26c-.6.17-1.36.33-2.3.48-.94.15-1.93.22-2.96.22s-1.92-.14-2.62-.42c-.7-.28-1.25-.68-1.66-1.19-.41-.51-.7-1.12-.87-1.82-.17-.71-.26-1.48-.26-2.33v-6.88h3.5v6.46c0,1.13.15,1.94.45,2.44.3.5.85.75,1.67.75.25,0,.52-.01.8-.03.28-.02.53-.05.75-.08v-9.54h3.5v11.94Z"/>
      <path class="cls-1" d="M93.79,160.6c0-1.1.17-2.06.51-2.88.34-.82.78-1.51,1.33-2.06.55-.55,1.18-.96,1.89-1.25s1.45-.42,2.2-.42c1.75,0,3.14.54,4.16,1.61,1.02,1.07,1.53,2.65,1.53,4.73,0,.2,0,.43-.02.67-.02.24-.03.46-.05.65h-7.94c.08.72.41,1.29,1.01,1.72.59.42,1.39.63,2.4.63.64,0,1.27-.06,1.89-.18s1.12-.26,1.52-.43l.47,2.84c-.19.09-.44.19-.75.28s-.66.18-1.05.25c-.38.07-.8.13-1.23.18-.44.05-.88.07-1.32.07-1.11,0-2.08-.16-2.9-.49-.82-.33-1.5-.78-2.04-1.35-.54-.57-.94-1.25-1.2-2.03-.26-.78-.39-1.63-.39-2.54ZM102.01,159.26c-.02-.3-.07-.59-.15-.87-.09-.28-.22-.53-.4-.75-.18-.22-.41-.4-.68-.54-.27-.14-.62-.21-1.02-.21s-.73.07-1.01.2-.52.31-.7.53c-.19.22-.33.47-.43.76-.1.29-.18.58-.22.88h4.63Z"/>
      <path class="cls-1" d="M109.77,154.75c.6-.17,1.36-.33,2.3-.48.94-.15,1.93-.22,2.96-.22s1.92.14,2.62.41c.7.27,1.25.66,1.66,1.16.41.5.7,1.1.87,1.79.17.69.26,1.46.26,2.3v6.98h-3.5v-6.55c0-1.13-.15-1.93-.45-2.4-.3-.47-.85-.7-1.67-.7-.25,0-.52.01-.8.04-.28.02-.53.05-.75.08v9.54h-3.5v-11.93Z"/>
      <path class="cls-1" d="M124.69,160.5c0-.89.14-1.73.43-2.53.29-.79.71-1.48,1.26-2.07.55-.59,1.21-1.05,2-1.4.78-.34,1.68-.52,2.68-.52.66,0,1.26.06,1.81.18.55.12,1.08.29,1.6.51l-.73,2.8c-.33-.13-.69-.23-1.08-.33-.39-.09-.83-.14-1.32-.14-1.03,0-1.81.32-2.31.96-.51.64-.76,1.49-.76,2.54,0,1.11.24,1.97.72,2.58.48.61,1.31.92,2.5.92.42,0,.88-.04,1.36-.12s.93-.2,1.34-.38l.49,2.87c-.41.17-.92.32-1.53.45-.61.13-1.28.19-2.02.19-1.13,0-2.1-.17-2.91-.51-.81-.34-1.48-.79-2.01-1.37s-.91-1.26-1.15-2.06c-.24-.79-.36-1.65-.36-2.57Z"/>
      <path class="cls-1" d="M142.54,153.99c1.03,0,1.9.12,2.58.35.69.23,1.24.57,1.66,1.01.41.44.71.97.88,1.6s.26,1.32.26,2.09v7.28c-.5.11-1.2.24-2.09.39-.89.15-1.97.22-3.24.22-.8,0-1.52-.07-2.17-.21-.65-.14-1.21-.37-1.68-.69s-.83-.74-1.08-1.26c-.25-.52-.38-1.15-.38-1.9s.14-1.33.43-1.83c.29-.5.68-.9,1.16-1.2.48-.3,1.04-.51,1.67-.65.63-.13,1.28-.2,1.95-.2.45,0,.86.02,1.21.06.35.04.64.09.86.15v-.33c0-.6-.18-1.07-.54-1.43-.36-.36-.99-.54-1.88-.54-.6,0-1.18.04-1.76.13-.58.09-1.08.21-1.5.36l-.45-2.82c.2-.06.46-.13.76-.2.31-.07.64-.13,1-.19.36-.05.74-.1,1.14-.14s.8-.06,1.21-.06ZM142.82,164.24c.34,0,.67,0,.99-.02.31-.02.56-.04.75-.07v-2.65c-.14-.03-.35-.06-.63-.09s-.54-.05-.78-.05c-.33,0-.64.02-.93.06-.29.04-.54.11-.76.22-.22.11-.39.26-.52.45-.13.19-.19.42-.19.7,0,.55.18.93.55,1.14.37.21.87.32,1.52.32Z"/>
      <path class="cls-1" d="M170.08,154.68c0,.6-.12,1.17-.35,1.71s-.54,1.08-.92,1.59c-.38.51-.8,1-1.27,1.47-.47.47-.93.92-1.39,1.34-.23.22-.49.47-.76.74s-.54.55-.79.83c-.25.28-.47.54-.67.79s-.32.44-.36.6h7v2.94h-10.85c-.03-.17-.05-.39-.05-.66v-.56c0-.75.12-1.44.36-2.07.24-.63.56-1.21.95-1.75.39-.54.83-1.05,1.33-1.52.49-.47.98-.94,1.47-1.41.38-.36.73-.7,1.06-1.02s.62-.63.87-.94c.25-.31.45-.61.59-.92.14-.31.21-.61.21-.93,0-.69-.2-1.17-.59-1.46-.39-.28-.88-.42-1.46-.42-.42,0-.82.07-1.19.2-.37.13-.7.29-1.01.47-.31.18-.57.36-.79.54-.22.18-.38.32-.49.43l-1.74-2.44c.69-.64,1.49-1.17,2.41-1.59s1.9-.62,2.95-.62c.96,0,1.78.11,2.47.33.69.22,1.26.53,1.7.93s.78.88.99,1.46c.21.57.32,1.22.32,1.94Z"/>
      <path class="cls-1" d="M185.98,158.51c0,2.74-.52,4.84-1.56,6.31-1.04,1.46-2.48,2.2-4.31,2.2s-3.27-.73-4.31-2.2c-1.04-1.46-1.56-3.57-1.56-6.31,0-1.36.14-2.57.41-3.62.27-1.05.67-1.93,1.19-2.65s1.14-1.27,1.86-1.64c.72-.38,1.53-.56,2.42-.56,1.83,0,3.27.73,4.31,2.2,1.04,1.46,1.56,3.56,1.56,6.28ZM182.41,158.51c0-.81-.04-1.55-.12-2.22-.08-.67-.2-1.24-.38-1.73-.17-.48-.41-.86-.7-1.13-.3-.27-.67-.4-1.1-.4s-.8.13-1.09.4c-.29.27-.52.64-.7,1.13-.18.49-.31,1.06-.39,1.73s-.12,1.41-.12,2.22.04,1.56.12,2.23c.08.67.21,1.25.39,1.74.18.49.41.86.7,1.13.29.27.65.4,1.09.4s.81-.13,1.1-.4c.3-.27.53-.64.7-1.13s.3-1.07.38-1.74c.08-.67.12-1.42.12-2.23Z"/>
      <path class="cls-1" d="M200.1,154.68c0,.6-.12,1.17-.35,1.71s-.54,1.08-.92,1.59c-.38.51-.8,1-1.27,1.47-.47.47-.93.92-1.39,1.34-.23.22-.49.47-.76.74s-.54.55-.79.83c-.25.28-.47.54-.67.79s-.32.44-.36.6h7v2.94h-10.85c-.03-.17-.05-.39-.05-.66v-.56c0-.75.12-1.44.36-2.07.24-.63.56-1.21.95-1.75.39-.54.83-1.05,1.33-1.52.49-.47.98-.94,1.47-1.41.38-.36.73-.7,1.06-1.02s.62-.63.87-.94c.25-.31.45-.61.59-.92.14-.31.21-.61.21-.93,0-.69-.2-1.17-.59-1.46-.39-.28-.88-.42-1.46-.42-.42,0-.82.07-1.19.2-.37.13-.7.29-1.01.47-.31.18-.57.36-.79.54-.22.18-.38.32-.49.43l-1.74-2.44c.69-.64,1.49-1.17,2.41-1.59s1.9-.62,2.95-.62c.96,0,1.78.11,2.47.33.69.22,1.26.53,1.7.93s.78.88.99,1.46c.21.57.32,1.22.32,1.94Z"/>
      <path class="cls-1" d="M210.34,156.3c1.02,0,1.88.14,2.6.41.71.27,1.3.65,1.75,1.12.45.47.78,1.02.99,1.64.2.63.31,1.29.31,2,0,.63-.11,1.27-.34,1.93-.23.66-.57,1.25-1.03,1.79s-1.05.97-1.76,1.32c-.71.34-1.55.52-2.53.52-1.96,0-3.45-.62-4.46-1.86-1.02-1.24-1.53-2.94-1.53-5.12,0-1.57.24-2.95.73-4.16s1.18-2.22,2.08-3.04c.9-.82,1.99-1.45,3.27-1.88s2.71-.65,4.31-.67c.03.49.06.96.09,1.42.03.46.06.94.09,1.45-.8.02-1.55.09-2.24.22-.7.13-1.33.34-1.9.62-.57.28-1.07.65-1.49,1.09-.42.45-.75.99-.99,1.63.34-.16.7-.27,1.06-.33s.7-.09,1.01-.09ZM209.9,159.02c-.34,0-.71.03-1.1.09-.39.06-.7.15-.92.26,0,.06,0,.16-.01.28,0,.13-.01.23-.01.33,0,.56.04,1.1.12,1.6.08.5.21.94.4,1.32.19.38.44.67.75.88.31.21.7.32,1.17.32.39,0,.72-.08,1-.25.27-.16.5-.37.68-.62.18-.25.31-.53.4-.83.09-.31.13-.6.13-.88,0-.8-.2-1.41-.6-1.84-.4-.43-1.07-.65-2.01-.65Z"/>
    </g>
  </g>
</svg>